<svg width="16" height="16" viewBox="0 0 16 16" fill="none" xmlns="http://www.w3.org/2000/svg">
<g clip-path="url(#clip0_330_6497)">
<rect width="16" height="16" rx="8" fill="#2E2E48"/>
<path d="M6.52697 11.5563C5.6844 11.5563 4.92479 11.0487 4.6023 10.2703C4.27981 9.49191 4.45794 8.59588 5.05364 8.00001L5.9378 7.11584L6.52697 7.70501L5.64322 8.58876C5.32741 8.90457 5.20407 9.36487 5.31967 9.79627C5.43526 10.2277 5.77223 10.5646 6.20363 10.6802C6.63503 10.7958 7.09533 10.6725 7.41114 10.3567L8.29489 9.47293L8.88405 10.0625L8.0003 10.9463C7.61033 11.3381 7.07983 11.5578 6.52697 11.5563ZM6.82155 9.76751L6.23239 9.17834L9.17864 6.23209L9.7678 6.82126L6.82197 9.76709L6.82155 9.76751ZM10.0628 8.88376L9.47322 8.29459L10.357 7.41084C10.6771 7.09598 10.8037 6.63362 10.6887 6.19958C10.5738 5.76555 10.2348 5.42653 9.80081 5.31144C9.3668 5.19636 8.90441 5.32289 8.58947 5.64293L7.7053 6.52668L7.11614 5.93751L8.0003 5.05334C8.81492 4.24583 10.129 4.24871 10.9401 5.05978C11.7512 5.87085 11.7541 7.18497 10.9466 7.99959L10.0628 8.88334V8.88376Z" fill="#E2E6EE"/>
</g>
<defs>
<clipPath id="clip0_330_6497">
<rect width="16" height="16" rx="8" fill="white"/>
</clipPath>
</defs>
</svg>
