<svg width="16" height="16" viewBox="0 0 16 16" fill="none" xmlns="http://www.w3.org/2000/svg">
<g clip-path="url(#clip0_303_10811)">
<rect width="16" height="16" fill="#47516B"/>
<path d="M7.99998 11.75C7.4737 11.3011 6.98589 10.809 6.54165 10.2788C5.87498 9.48252 5.08331 8.29669 5.08331 7.16669C5.08272 5.9865 5.79342 4.92227 6.88376 4.4706C7.9741 4.01894 9.22918 4.26887 10.0633 5.10377C10.6118 5.64986 10.9191 6.39268 10.9167 7.16669C10.9167 8.29669 10.125 9.48252 9.45831 10.2788C9.01407 10.809 8.52626 11.3011 7.99998 11.75ZM7.99998 5.91669C7.5534 5.91669 7.14074 6.15494 6.91745 6.54169C6.69416 6.92844 6.69416 7.40494 6.91745 7.79169C7.14074 8.17844 7.5534 8.41669 7.99998 8.41669C8.69034 8.41669 9.24998 7.85704 9.24998 7.16669C9.24998 6.47633 8.69034 5.91669 7.99998 5.91669Z" fill="#E2E6EE"/>
</g>
<defs>
<clipPath id="clip0_303_10811">
<rect width="16" height="16" rx="8" fill="white"/>
</clipPath>
</defs>
</svg>
