<svg width="16" height="16" viewBox="0 0 16 16" fill="none" xmlns="http://www.w3.org/2000/svg">
<g clip-path="url(#clip0_303_10803)">
<rect width="16" height="16" fill="#47516B"/>
<path d="M10.9156 11.3333C7.36077 11.3384 4.66286 8.60814 4.66666 5.0844C4.66666 4.85428 4.85321 4.66669 5.08333 4.66669H6.18306C6.38955 4.66669 6.56496 4.81841 6.59528 5.02266C6.66795 5.51219 6.81048 5.98876 7.01852 6.43781L7.06134 6.53023C7.12088 6.65873 7.08052 6.81141 6.96527 6.89372C6.6247 7.13693 6.49454 7.6265 6.75986 8.0085C7.09281 8.48787 7.51251 8.90748 7.99177 9.24028C8.37375 9.50553 8.86324 9.37539 9.10645 9.03487C9.18881 8.91956 9.34158 8.87919 9.47015 8.93875L9.56215 8.98136C10.0112 9.18939 10.4878 9.33193 10.9774 9.40458C11.1817 9.4349 11.3333 9.6103 11.3333 9.8168V10.9167C11.3333 11.1468 11.1463 11.3333 10.9162 11.3333L10.9156 11.3333Z" fill="#E2E6EE"/>
</g>
<defs>
<clipPath id="clip0_303_10803">
<rect width="16" height="16" rx="8" fill="white"/>
</clipPath>
</defs>
</svg>
